<?xml version="1.0" encoding="iso-8859-1"?>
<!-- Generator: Adobe Illustrator 15.1.0, SVG Export Plug-In . SVG Version: 6.00 Build 0)  -->
<!DOCTYPE svg PUBLIC "-//W3C//DTD SVG 1.1//EN" "http://www.w3.org/Graphics/SVG/1.1/DTD/svg11.dtd">
<svg version="1.1" id="Layer_1" xmlns="http://www.w3.org/2000/svg" xmlns:xlink="http://www.w3.org/1999/xlink" x="0px" y="0px"
	 width="33.243px" height="33.374px" viewBox="0 0 33.243 33.374" style="enable-background:new 0 0 33.243 33.374;"
	 xml:space="preserve">
<path style="fill:none;" d="M12.24,11.687h-3V8.625h3V11.687z M10.24,10.687h1V9.625h-1V10.687z"/>
<path style="fill-rule:evenodd;clip-rule:evenodd;fill:#1EB6CD;" d="M32.807,12.104h-1.024c-0.062-0.233,0.047,0.114-0.025-0.115
	H22.85l5.939-4.415l0.371-0.49C26.277,3.39,21.788,1,16.74,1C8.061,1,1,8.038,1,16.688c0,8.649,7.061,15.687,15.74,15.687
	c7.29,0,13.421-4.972,15.202-11.687h1.032c-1.805,7.272-8.389,12.687-16.234,12.687C7.51,33.374,0,25.889,0,16.688
	C0,7.486,7.51,0,16.74,0c5.271,0,9.975,2.447,13.046,6.256l3.457-4.568v10.301h-0.45C32.861,12.218,32.749,11.87,32.807,12.104z"/>
</svg>
