<?xml version="1.0" encoding="iso-8859-1"?>
<!-- Generator: Adobe Illustrator 15.1.0, SVG Export Plug-In . SVG Version: 6.00 Build 0)  -->
<!DOCTYPE svg PUBLIC "-//W3C//DTD SVG 1.1//EN" "http://www.w3.org/Graphics/SVG/1.1/DTD/svg11.dtd">
<svg version="1.1" id="Layer_1" xmlns="http://www.w3.org/2000/svg" xmlns:xlink="http://www.w3.org/1999/xlink" x="0px" y="0px"
	 width="33.48px" height="33.375px" viewBox="0 0 33.48 33.375" style="enable-background:new 0 0 33.48 33.375;"
	 xml:space="preserve">
<path style="fill:#1EB6CD;" d="M16.74,33.375C7.51,33.375,0,25.889,0,16.688C0,7.486,7.51,0,16.74,0
	c9.229,0,16.74,7.486,16.74,16.688C33.48,25.889,25.971,33.375,16.74,33.375z M16.74,1C8.061,1,1,8.038,1,16.688
	c0,8.649,7.062,15.687,15.74,15.687s15.74-7.037,15.74-15.687C32.48,8.038,25.419,1,16.74,1z M13.463,24.708
	c-0.046,0-0.084,0.295-0.084,0.248v-1.094c0-0.048,0.038-0.085,0.084-0.085H15.4V13.762h-1.77c-0.046,0-0.084,0.462-0.084,0.416
	v-1.263c0-0.046,0.038-0.084,0.084-0.084h1.854h1.712h1.235c0.046,0-0.583,0.038-0.583,0.084v10.864h2.351
	c0.046,0,0.084,0.038,0.084,0.084v1.096c0,0.045-0.038-0.25-0.084-0.25H13.463L13.463,24.708z M16.748,10.898
	c-0.977,0-1.769-0.792-1.769-1.769s0.792-1.769,1.769-1.769c0.978,0,1.77,0.792,1.77,1.769
	C18.516,10.106,17.724,10.898,16.748,10.898z"/>
</svg>
