<?xml version="1.0" encoding="iso-8859-1"?>
<!-- Generator: Adobe Illustrator 15.1.0, SVG Export Plug-In . SVG Version: 6.00 Build 0)  -->
<!DOCTYPE svg PUBLIC "-//W3C//DTD SVG 1.1//EN" "http://www.w3.org/Graphics/SVG/1.1/DTD/svg11.dtd">
<svg version="1.1" id="Layer_1" xmlns="http://www.w3.org/2000/svg" xmlns:xlink="http://www.w3.org/1999/xlink" x="0px" y="0px"
	 width="33.48px" height="33.375px" viewBox="0 0 33.48 33.375" style="enable-background:new 0 0 33.48 33.375;"
	 xml:space="preserve">
<path style="fill:#1EB6CD;" d="M16.74,33.375C7.51,33.375,0,25.889,0,16.688C0,7.486,7.51,0,16.74,0
	c9.229,0,16.74,7.486,16.74,16.688C33.48,25.889,25.971,33.375,16.74,33.375z M16.74,1C8.061,1,1,8.038,1,16.688
	c0,8.649,7.062,15.687,15.74,15.687s15.74-7.037,15.74-15.687C32.48,8.038,25.419,1,16.74,1z M15.108,23.865l-0.599,0.568
	l-7.559-7.195l2.059-1.96l5.517,5.251l10.465-9.963l2.059,1.96L15.124,23.878L15.108,23.865z"/>
</svg>
