<?xml version="1.0" encoding="iso-8859-1"?>
<!-- Generator: Adobe Illustrator 15.1.0, SVG Export Plug-In . SVG Version: 6.00 Build 0)  -->
<!DOCTYPE svg PUBLIC "-//W3C//DTD SVG 1.1//EN" "http://www.w3.org/Graphics/SVG/1.1/DTD/svg11.dtd">
<svg version="1.1" id="Layer_1" xmlns="http://www.w3.org/2000/svg" xmlns:xlink="http://www.w3.org/1999/xlink" x="0px" y="0px"
	 width="83.73px" height="93.316px" viewBox="0 0 83.73 93.316" style="enable-background:new 0 0 83.73 93.316;"
	 xml:space="preserve">
<g>
	<path style="fill:#ECB81E;" d="M21.896,21.896c0.097,2.915,0.75,10.556,4.698,18.535c2.319,4.66,7.367,12.482,15.112,12.482
		c0.095,0,0.189-0.001,0.286-0.004c0.096,0.003,0.19,0.004,0.287,0.004c7.743,0,12.792-7.822,15.112-12.487
		c3.947-7.979,4.6-15.617,4.696-18.554c0.004-0.239,0.002-0.476-0.002-0.706l0.002-0.19C62.089,9.409,53.073,0,41.992,0
		S21.895,9.409,21.895,20.976l0.003,0.187C21.894,21.399,21.892,21.635,21.896,21.896z M24.354,20.974
		c0-10.209,7.912-18.517,17.638-18.517c9.725,0,17.637,8.308,17.637,18.517l-0.003,0.214v0.021c0.003,0.206,0.005,0.414,0.003,0.603
		c-0.09,2.754-0.707,9.975-4.44,17.521c-1.665,3.344-6.253,11.12-12.911,11.12c-0.083,0-0.167-0.001-0.25-0.003l-0.035-0.001v-0.001
		h-0.037c-6.776,0.198-11.477-7.731-13.16-11.114c-2.914-5.89-3.926-11.572-4.275-15.087l22.813-8.267
		c3.363-1.256,5.622-4.515,5.622-8.105c0-0.225-0.183-0.41-0.41-0.41c-0.227,0-0.41,0.184-0.41,0.41
		c0,3.251-2.045,6.199-5.086,7.336l-22.604,8.193c-0.048-0.617-0.078-1.153-0.091-1.573c-0.003-0.209-0.001-0.415,0.003-0.66
		L24.354,20.974z"/>
	<path style="fill:#ECB81E;" d="M38.935,77.624c0,1.616,1.314,2.929,2.93,2.929c1.616,0,2.93-1.312,2.93-2.929
		s-1.313-2.929-2.93-2.929S38.935,76.008,38.935,77.624z M44.385,77.624c0,1.39-1.131,2.521-2.52,2.521
		c-1.39,0-2.52-1.131-2.52-2.521c0-1.389,1.13-2.519,2.52-2.519C43.254,75.105,44.385,76.235,44.385,77.624z"/>
	<path style="fill:#ECB81E;" d="M53.289,54.903h-1.203l-0.032,1.498c0,4.628-4.563,8.393-10.174,8.393
		c-5.609,0-10.172-3.766-10.172-8.393l-0.199-1.498H30.44C13.656,54.903,0,68.558,0,85.342v7.975h74.065
		c0.679,0,1.229-0.55,1.229-1.23c0-0.678-0.55-1.229-1.229-1.229H65.42v-8.36c0-0.225-0.182-0.41-0.41-0.41
		c-0.226,0-0.409,0.184-0.409,0.41v8.36H19.201v-8.36c0-0.225-0.184-0.41-0.41-0.41c-0.226,0-0.41,0.184-0.41,0.41v8.36H2.46v-5.515
		c0-15.046,11.938-27.355,26.839-27.958c0.582,5.524,6.002,9.867,12.581,9.867c6.588,0,12.015-4.354,12.583-9.866
		C69.349,58.004,81.27,70.308,81.27,85.342v6.591c0,0.678,0.551,1.229,1.229,1.229c0.68,0,1.229-0.55,1.229-1.229v-6.591
		C83.729,68.559,70.075,54.903,53.289,54.903z"/>
</g>
</svg>
