<?xml version="1.0" encoding="iso-8859-1"?>
<!-- Generator: Adobe Illustrator 15.1.0, SVG Export Plug-In . SVG Version: 6.00 Build 0)  -->
<!DOCTYPE svg PUBLIC "-//W3C//DTD SVG 1.1//EN" "http://www.w3.org/Graphics/SVG/1.1/DTD/svg11.dtd">
<svg version="1.1" id="Layer_1" xmlns="http://www.w3.org/2000/svg" xmlns:xlink="http://www.w3.org/1999/xlink" x="0px" y="0px"
	 width="16.021px" height="17.793px" viewBox="0 0 16.021 17.793" style="enable-background:new 0 0 16.021 17.793;"
	 xml:space="preserve">
<path style="fill:#1EB6CD;" d="M12.173,17.793c-3.231,0-7.317-4.441-8.104-5.333l-0.133-0.162c-0.784-0.977-4.491-5.83-3.867-9.01
	c0.183-0.92,1.668-2.661,2.081-2.885l0.549-0.297C2.828,0.036,2.968,0,3.115,0C4.04,0,4.996,1.505,5.483,2.402
	c0.542,0.997,1.141,2.352,0.906,3.142C6.316,5.792,6.165,5.985,5.951,6.101L5.403,6.397C5.149,6.534,4.842,6.493,4.629,6.431
	C4.557,6.41,4.493,6.391,4.437,6.387l5.512,6.572c0.006-0.054,0-0.117-0.01-0.202c-0.021-0.19-0.053-0.481,0.168-0.757l0.388-0.488
	c0.125-0.156,0.355-0.342,0.761-0.342c0.813,0,1.972,0.787,2.801,1.446c0.978,0.78,2.505,2.225,1.777,3.141l-0.389,0.488
	c-0.294,0.367-2.266,1.528-3.202,1.547L12.173,17.793z M3.115,0.723c-0.026,0-0.049,0.006-0.071,0.019L2.496,1.038
	c-0.247,0.149-1.579,1.697-1.716,2.39c-0.438,2.223,1.714,5.905,3.688,8.383l0.174,0.211c2.042,2.308,5.267,5.049,7.531,5.049v0.361
	l0.054-0.363c0.707-0.012,2.461-1.056,2.652-1.275l0.386-0.486c0.188-0.233-0.396-1.113-1.661-2.125
	c-1.013-0.807-1.892-1.287-2.35-1.287c-0.14,0-0.178,0.047-0.194,0.067l-0.388,0.488c-0.03,0.037-0.032,0.071-0.015,0.229
	c0.017,0.155,0.04,0.367-0.051,0.604c-0.051,0.136-0.208,0.551-0.604,0.551c-0.179,0-0.346-0.092-0.496-0.272L3.763,6.713
	C3.544,6.456,3.555,6.237,3.603,6.1c0.114-0.322,0.486-0.393,0.626-0.42C4.473,5.635,4.678,5.692,4.83,5.736
	c0.068,0.02,0.135,0.039,0.177,0.039l0.6-0.311c0.03-0.016,0.065-0.044,0.089-0.125c0.122-0.413-0.202-1.405-0.848-2.591
	C4.21,1.575,3.481,0.723,3.115,0.723z"/>
</svg>
